{"title":"Aaron's House (2012) DVDRip","uid":8407727,"size":772049500,"categoryP":"video","categoryS":"movies","magnet":"?xt=urn:btih:4aa320555f1dfe248e7c90f7b4c6a90ccdf3fc1d&amp;dn=Aaron%27s+House+%282012%29+DVDRip&amp;tr=udp%3A%2F%2Ftracker.openbittorrent.com%3A80&amp;tr=udp%3A%2F%2Fopen.demonii.com%3A1337&amp;tr=udp%3A%2F%2Ftracker.coppersurfer.tk%3A6969&amp;tr=udp%3A%2F%2Fexodus.desync.com%3A6969","seeders":1,"leechers":0,"uploader":"RadioResearch","files":3,"time":1366841093,"description":"*******************************************************************************\n                          Aaron's House (2012) DVDRip\n*******************************************************************************\n\n-------------------------------------------------------------------------------\n                              General Information\n-------------------------------------------------------------------------------\nType.................: Movie\n\n\n\nVideo Format.........: AVI\nVideo Bitrate........: 1171\nResolution...........: 720 x 414\nColor................: 8 bit\nFPS..................: 29.970\nSource...............: DVD 1.739:1\nOriginal Format......: NTSC\nGenre................: Horror\nIMDb Rating..........: 4.8\nMovie Information....: http://www.imdb.com/title/tt1986761/\n\n-------------------------------------------------------------------------------\n                               Post Information\n-------------------------------------------------------------------------------\nPosted by............: RadioResearch\nPosted on............: 4/24/2013\n\n-------------------------------------------------------------------------------\n                                 Release Notes\n-------------------------------------------------------------------------------\nSEEDBOX SUPPORTED!!\n\nA paranormal researcher sets out to debunk the legends surrounding the infamous \nAaron's House. \n\n\nThis looks like a good Indie film!\n\nEnjoy!\nRadioResearch\n\nGeneral\nComplete name                            : G:AVIaviAARONS_HOUSEAaron's House \n(2012) DVDRipAARONS_HOUSE.Title4.avi\nFormat                                   : AVI\nFormat/Info                              : Audio Video Interleave\nFile size                                : 736 MiB\nDuration                                 : 1h 27mn\nOverall bit rate                         : 1 171 Kbps\nMovie name                               : AARONS_HOUSE.Title4.DVDRip\nWriting application                      : Lavf53.32.100\nOriginal source form/Name                : AARONS_HOUSE\n\nVideo\nID                                       : 0\nFormat                                   : MPEG-4 Visual\nFormat profile                           : Advanced Simple@L5\nFormat settings, BVOP                    : 2\nFormat settings, QPel                    : No\nFormat settings, GMC                     : No warppoints\nFormat settings, Matrix                  : Default (H.263)\nMuxing mode                              : Packed bitstream\nCodec ID                                 : XVID\nCodec ID/Hint                            : XviD\nDuration                                 : 1h 27mn\nBit rate                                 : 1 031 Kbps\nWidth                                    : 720 pixels\nHeight                                   : 414 pixels\nDisplay aspect ratio                     : 1.739\nFrame rate                               : 29.970 fps\nColor space                              : YUV\nChroma subsampling                       : 4:2:0\nBit depth                                : 8 bits\nScan type                                : Progressive\nCompression mode                         : Lossy\nBits/(Pixel*Frame)                       : 0.115\nStream size                              : 648 MiB (88%)\nWriting library                          : XviD 64\n\nAudio\nID                                       : 1\nFormat                                   : AC-3\nFormat/Info                              : Audio Coding 3\nMode extension                           : CM (complete main)\nFormat settings, Endianness              : Big\nCodec ID                                 : 2000\nDuration                                 : 1h 27mn\nBit rate mode                            : Constant\nBit rate                                 : 128 Kbps\nChannel(s)                               : 2 channels\nChannel positions                        : Front: L R\nSampling rate                            : 48.0 KHz\nBit depth                                : 16 bits\nCompression mode                         : Lossy\nStream size                              : 80.4 MiB (11%)\nAlignment                                : Aligned on interleaves\nInterleave, duration                     : 32 ms (0.96 video frame)\n\n\n\n\n-------------------------------------------------------------------------------\nGenerated with Cool NFO Creator - http://fly.to/coolbeans\n-------------------------------------------------------------------------------\n","torrent":{"xt":"urn:btih:4aa320555f1dfe248e7c90f7b4c6a90ccdf3fc1d","amp;dn":"Aaron%27s+House+%282012%29+DVDRip","amp;tr":["udp%3A%2F%2Ftracker.openbittorrent.com%3A80","udp%3A%2F%2Fopen.demonii.com%3A1337","udp%3A%2F%2Ftracker.coppersurfer.tk%3A6969","udp%3A%2F%2Fexodus.desync.com%3A6969"],"infoHash":"4aa320555f1dfe248e7c90f7b4c6a90ccdf3fc1d","infoHashBuffer":{"type":"Buffer","data":[74,163,32,85,95,29,254,36,142,124,144,247,180,198,169,12,205,243,252,29]},"announce":[],"urlList":[]}}